<?xml version="1.0" encoding="utf-8"?>
<!-- Generator: Adobe Illustrator 25.2.3, SVG Export Plug-In . SVG Version: 6.00 Build 0)  -->
<svg version="1.1" id="Layer_1" xmlns="http://www.w3.org/2000/svg" xmlns:xlink="http://www.w3.org/1999/xlink" x="0px" y="0px"
	 width="8px" height="14px" viewBox="0 0 8 14" style="enable-background:new 0 0 8 14;" xml:space="preserve">
<path d="M1.9,13.6l5.7-5.8l0,0C7.7,7.7,8,7.4,8,7c0-0.5-0.2-0.7-0.3-0.8l0,0L1.9,0.3c-0.4-0.4-1.2-0.4-1.6,0C0.1,0.6,0,0.8,0,1.1
	s0.1,0.6,0.3,0.8l3.8,3.9c0,0,0.7,0.5,0.7,1.1S4.1,8.2,4.1,8.2L0.3,12c-0.4,0.4-0.4,1.2,0,1.6C0.8,14.1,1.5,14.1,1.9,13.6z"/>
</svg>
