<?xml version="1.0" encoding="utf-8"?>
<!-- Generator: Adobe Illustrator 25.2.3, SVG Export Plug-In . SVG Version: 6.00 Build 0)  -->
<svg version="1.1" id="Layer_1" xmlns="http://www.w3.org/2000/svg" xmlns:xlink="http://www.w3.org/1999/xlink" x="0px" y="0px"
	 width="21px" height="21px" viewBox="0 0 21 21" style="enable-background:new 0 0 21 21;" xml:space="preserve">
<style type="text/css">
	.st0{fill:#ABABAB;}
</style>
<path d="M14.8,9.5l-3.7-3.8l0,0c-0.2-0.1-0.2-0.1-0.3-0.2c-0.1,0-0.2-0.1-0.3-0.1s-0.2,0-0.3,0.1c-0.1,0-0.2,0.1-0.2,0.2l0,0
	L6.2,9.5c-0.3,0.3-0.3,0.7,0,1c0.1,0.1,0.3,0.2,0.5,0.2s0.4-0.1,0.5-0.2L9.7,8v6.4c0,0.4,0.3,0.8,0.8,0.8s0.8-0.3,0.8-0.8V8l2.5,2.5
	c0.3,0.3,0.8,0.3,1.1,0S15,9.8,14.8,9.5z"/>
<path class="st0" d="M10.5,21C4.7,21,0,16.3,0,10.5C0,4.7,4.7,0,10.5,0C16.2,0,21,4.7,21,10.5C21,16.3,16.2,21,10.5,21z M10.5,1.5
	c-5,0-9,4.1-9,9.1s4.1,9.1,9,9.1s9-4.1,9-9.1C19.5,5.5,15.5,1.5,10.5,1.5z"/>
</svg>
