<?xml version="1.0" encoding="utf-8"?>
<!-- Generator: Adobe Illustrator 25.2.3, SVG Export Plug-In . SVG Version: 6.00 Build 0)  -->
<svg version="1.1" id="Layer_1" xmlns="http://www.w3.org/2000/svg" xmlns:xlink="http://www.w3.org/1999/xlink" x="0px" y="0px"
	 width="12px" height="12px" viewBox="0 0 12 12" style="enable-background:new 0 0 12 12;" xml:space="preserve">
<path d="M7.1,6l4.7-4.7c0.3-0.3,0.3-0.8,0-1.1c-0.3-0.3-0.8-0.3-1.1,0L6,4.9L1.3,0.2C1-0.1,0.5-0.1,0.2,0.2s-0.3,0.8,0,1.1L4.9,6
	l-4.7,4.7c-0.3,0.3-0.3,0.8,0,1.1C0.5,12,1,12,1.3,11.7L6,7.1l4.7,4.7c0.3,0.3,0.8,0.3,1.1,0c0.3-0.3,0.3-0.8,0-1.1L7.1,6z"/>
</svg>
